<svg width="91" height="114" viewBox="0 0 91 114" fill="none" xmlns="http://www.w3.org/2000/svg">
<g clip-path="url(#clip0)">
<path d="M65.2333 87.0999V103.1C65.2333 103.1 67.7 106.1 66.7 109.467C66.0334 111.7 63.2333 113.667 56 113.4C46.6 113.067 46.8 110.467 46.8 103.767V87.0999C46.7 81.9999 50.7333 77.7999 55.8333 77.6999C60.9333 77.5999 65.1333 81.6333 65.2333 86.7333C65.2333 86.8999 65.2333 86.9999 65.2333 87.0999Z" fill="white" stroke="black" stroke-width="1.5" stroke-miterlimit="10"/>
<path d="M25.2333 87.0999V103.1C25.2333 103.1 22.7667 106.1 23.7667 109.467C24.4333 111.7 27.2333 113.667 34.4667 113.4C43.8667 113.067 43.6667 110.467 43.6667 103.767V87.0999C43.7667 81.9999 39.7333 77.7999 34.6333 77.6999C29.5333 77.5999 25.3333 81.6333 25.2333 86.7333C25.2333 86.8999 25.2333 86.9999 25.2333 87.0999Z" fill="white" stroke="black" stroke-width="1.5" stroke-miterlimit="10"/>
<path d="M6.60001 97.4333C1.43334 96.7 0.266677 92.1667 0.666677 88.3333C1.73334 77.9333 5.70001 68.3 10.5667 62.1C13.4667 58.4 18.6667 58.2667 21.4667 60.8667C24.2667 63.4667 24.0667 68.0333 21.9 71.0667C18.8 75.3667 15.9 82.2 15.2333 90.5C14.8667 94.5667 11.5333 98.1333 6.60001 97.4333Z" fill="white" stroke="black" stroke-width="1.5" stroke-miterlimit="10"/>
<path d="M83.8667 97.4333C89 96.7 90.2 92.1667 89.8 88.3333C88.7333 77.9333 84.7667 68.3 79.9 62.1C77 58.4 71.8 58.2667 69 60.8667C66.2 63.4667 66.4 68.0333 68.5667 71.0667C71.7 75.3667 74.5667 82.2 75.2333 90.5C75.6 94.5667 78.9333 98.1333 83.8667 97.4333Z" fill="white" stroke="black" stroke-width="1.5" stroke-miterlimit="10"/>
<path d="M45.2334 93.8667C27.2667 93.8667 18.3667 89.4666 13.4333 78.2C9.23335 68.5666 9.86668 46.3 13.4333 37.3333C15.6667 31.6333 19.3 27.3333 24.2 24.5V4.43331C24.2 2.29998 25.9 0.599976 28.0334 0.599976C30.1667 0.599976 31.8667 2.29998 31.8667 4.43331V21.5C35.6334 20.5666 39.9 20.1 45.2334 20.1C50.5667 20.1 54.8334 20.5333 58.6 21.5V4.43331C58.6 2.29998 60.3 0.599976 62.4334 0.599976C64.5667 0.599976 66.2667 2.29998 66.2667 4.43331V24.5333C71.1667 27.3666 74.7667 31.6666 77.0334 37.3666C80.6 46.3333 81.2334 68.6 77.0334 78.2333C72.1 89.4666 63.2 93.8667 45.2334 93.8667Z" fill="#FF7300" stroke="black" stroke-width="1.5" stroke-miterlimit="10"/>
<path d="M45.2333 61.0667C70.1 61.0667 71.4 51.4334 71.2 46.7334C70.3667 29.1334 53.8667 27.7001 45.2333 27.7001C36.6 27.7001 20.1 29.1334 19.3 46.7334C19.0667 51.4667 20.3333 61.0667 45.2333 61.0667Z" fill="white"/>
<path d="M24.6 49.6L28.6 47.8667" stroke="black" stroke-width="1.5" stroke-linecap="round" stroke-linejoin="round"/>
<path d="M28.5667 44.5L24.3 43.5" stroke="black" stroke-width="1.5" stroke-linecap="round" stroke-linejoin="round"/>
<path d="M66.2667 49.1333L62.2 47.5" stroke="black" stroke-width="1.5" stroke-linecap="round" stroke-linejoin="round"/>
<path d="M62.1667 44.1L66.4 43.0333" stroke="black" stroke-width="1.5" stroke-linecap="round" stroke-linejoin="round"/>
<path d="M36.1667 41.2666C36.1667 42.1666 35.4333 42.9333 34.5333 42.9333C33.6333 42.9333 32.8667 42.2 32.8667 41.3C32.8667 40.4 33.6 39.6333 34.5 39.6333C35.4 39.6333 36.1333 40.3333 36.1667 41.2666Z" fill="black"/>
<path d="M57.8 41C57.8 41.9 57.0667 42.6667 56.1667 42.6667C55.2667 42.6667 54.5 41.9334 54.5 41.0334C54.5 40.1334 55.2333 39.3667 56.1333 39.3667C57.0333 39.3667 57.8 40.1 57.8 41Z" fill="black"/>
<path d="M47.3667 41.8001C47.3667 42.9334 46.4667 43.8667 45.3333 43.8667C44.2 43.8667 43.2667 42.9667 43.2667 41.8334C43.2667 40.7001 44.1667 39.7667 45.3 39.7667C46.4333 39.7667 47.3667 40.6667 47.3667 41.8001Z" fill="#FF0000"/>
<path d="M52.5333 47.2999C51.0333 47.7999 48.0333 48.1333 45.4 48.1666C42.7667 48.1999 39.7667 47.8999 38.2333 47.4666" stroke="black" stroke-width="1.5" stroke-linecap="round" stroke-linejoin="round"/>
<path d="M31.8667 6.83332V4.39998C31.8667 2.26665 30.1667 0.56665 28.0333 0.56665C25.9 0.56665 24.2 2.26665 24.2 4.39998V6.83332" fill="white"/>
<path d="M31.8667 6.83332V4.39998C31.8667 2.26665 30.1667 0.56665 28.0333 0.56665C25.9 0.56665 24.2 2.26665 24.2 4.39998V6.83332" stroke="black" stroke-width="1.5" stroke-miterlimit="10"/>
<path d="M66.3 6.83332V4.39998C66.3 2.26665 64.6 0.56665 62.4667 0.56665C60.3333 0.56665 58.6333 2.26665 58.6333 4.39998V6.83332" fill="white"/>
<path d="M66.3 6.83332V4.39998C66.3 2.26665 64.6 0.56665 62.4667 0.56665C60.3333 0.56665 58.6333 2.26665 58.6333 4.39998V6.83332" stroke="black" stroke-width="1.5" stroke-miterlimit="10"/>
</g>
<defs>
<clipPath id="clip0">
<rect width="90.4667" height="114" fill="white"/>
</clipPath>
</defs>
</svg>
